<svg width="67" height="67" viewBox="0 0 67 67" fill="none" xmlns="http://www.w3.org/2000/svg">
<g filter="url(#filter0_d_2_53)">
<path d="M59 29.5C59 43.5833 47.5833 55 33.5 55C19.4167 55 8 43.5833 8 29.5C8 15.4167 19.4167 4 33.5 4C47.5833 4 59 15.4167 59 29.5Z" fill="#1C7F81"/>
</g>
<g clip-path="url(#clip0_2_53)">
<path d="M46.7669 34.0146C46.5153 33.1305 46.0058 32.4374 45.5476 31.8572L45.4729 31.7625C45.0153 31.1834 44.5831 30.6366 44.2549 30.0446C43.6355 28.9274 43.2669 27.6184 43.128 26.0428C43.0744 25.435 43.0528 24.8287 43.0302 24.1867C43.023 23.9855 43.0156 23.7776 43.0072 23.5717C42.9325 21.7387 42.329 20.0628 41.2138 18.5904C40.7161 17.9333 40.1622 17.3712 39.5675 16.9195C38.9968 16.4861 38.3954 16.1276 37.7711 15.8474V15.847C37.7711 15.847 34.1219 13.8515 29.8953 15.9857L29.9011 16.0018C29.4741 16.1943 29.0545 16.4492 28.5834 16.8024C27.2439 17.8064 26.2497 19.0692 25.6282 20.5555C25.2151 21.5437 24.9952 22.5461 24.9748 23.535L24.9728 23.6343C24.952 24.6511 24.9322 25.6118 24.8025 26.565C24.64 27.7579 24.3577 28.7635 23.9398 29.639C23.618 30.313 23.174 30.9254 22.6065 31.6379C22.1546 32.2051 21.5975 32.9046 21.2783 33.7899C21.1613 33.995 21.103 34.2242 21.1103 34.4563C21.1002 34.5569 21.0866 34.6625 21.0722 34.7736C21.0362 35.0508 20.9954 35.365 21.001 35.6981C21.0134 36.4147 21.2896 37.0634 21.7792 37.5245C22.2577 37.9754 22.9191 38.2258 23.6417 38.2299C23.7579 38.2305 23.8738 38.2312 23.99 38.232C24.315 38.234 24.6508 38.2362 24.9832 38.2362H24.9958C26.6765 38.236 28.3569 38.2352 30.0376 38.2346C31.2845 38.234 32.5312 38.2336 33.7779 38.2332C34.4687 38.2332 35.1596 38.2332 35.8504 38.2332C36.7251 38.2334 37.5998 38.2336 38.4743 38.2332C40.2078 38.2322 42.0815 38.2303 44.3709 38.2271C44.9835 38.2263 45.539 38.0517 45.9774 37.7223C46.4209 37.3889 46.7366 36.9035 46.8903 36.3186C47.1155 35.4611 46.9544 34.6725 46.7671 34.0142L46.7669 34.0146ZM44.819 35.7945C44.7513 36.0527 44.6499 36.1274 44.3679 36.1278C42.0789 36.131 40.2058 36.1329 38.4729 36.1339C37.5988 36.1343 36.7247 36.1341 35.8508 36.1339C35.1596 36.1337 34.4683 36.1335 33.7771 36.1339C32.5302 36.1343 31.2833 36.1347 30.0364 36.1353C28.3559 36.1361 26.6755 36.1367 24.995 36.1369C24.6662 36.1367 24.329 36.1347 24.0033 36.1327C23.8866 36.132 23.7701 36.1312 23.6533 36.1306C23.2046 36.1282 23.1428 35.8794 23.139 35.663C23.1358 35.4809 23.1638 35.2665 23.1932 35.0392C23.2098 34.9113 23.227 34.7793 23.2404 34.6413C23.2506 34.6166 23.2598 34.5915 23.2684 34.5658C23.4479 34.015 23.8055 33.541 24.291 32.9313C24.8595 32.2177 25.4449 31.433 25.8759 30.5302C26.388 29.4579 26.73 28.2518 26.9219 26.8434C27.0676 25.7727 27.0896 24.7072 27.1106 23.6769L27.1126 23.5778C27.1276 22.8491 27.2937 22.1005 27.6063 21.3529C28.0885 20.1998 28.8325 19.2572 29.8811 18.4713C30.2305 18.2094 30.5259 18.0287 30.8108 17.9021C31.062 17.7905 31.3255 17.6804 31.5963 17.5735C31.5933 17.5709 31.5905 17.5682 31.5875 17.5656C32.5852 17.2321 34.2337 16.8901 35.9897 17.4065C35.9881 17.4081 35.9865 17.4096 35.9849 17.4112C36.0481 17.4426 36.1174 17.471 36.1938 17.495C36.9134 17.721 37.608 18.0862 38.2583 18.5802C38.6988 18.9148 39.1156 19.3398 39.497 19.8435C40.3625 20.9862 40.8114 22.2334 40.8696 23.6559C40.8778 23.8562 40.885 24.0613 40.892 24.2598C40.9148 24.9001 40.9382 25.5623 40.9965 26.2239C41.1614 28.0939 41.6124 29.672 42.3758 31.0484C42.7867 31.7895 43.2929 32.4302 43.7824 33.0494L43.8565 33.1434C44.2825 33.683 44.5734 34.1115 44.7065 34.5795C44.8658 35.1393 44.8984 35.4913 44.8186 35.7947L44.819 35.7945Z" fill="white"/>
<path d="M35.4612 41.48C35.0928 41.7606 34.6434 41.9029 34.1913 41.9029C33.8131 41.9029 33.4329 41.8032 33.0969 41.6017C32.3969 41.182 32.0986 40.4607 32.0876 40.0165H29.9486C29.9538 40.5651 30.1067 41.1524 30.39 41.6988C30.754 42.4011 31.3045 42.987 31.9817 43.3931C32.6589 43.7993 33.4255 44 34.1893 43.9998C35.1076 43.9998 36.0222 43.7098 36.7722 43.1382C37.3067 42.7309 37.7205 42.2425 38.0019 41.6866C38.2576 41.182 38.4039 40.6206 38.4385 40.0163H36.2941C36.2325 40.6269 35.9645 41.096 35.4608 41.4796L35.4612 41.48Z" fill="white"/>
</g>
<defs>
<filter id="filter0_d_2_53" x="0.9" y="0.9" width="65.2" height="65.2" filterUnits="userSpaceOnUse" color-interpolation-filters="sRGB">
<feFlood flood-opacity="0" result="BackgroundImageFix"/>
<feColorMatrix in="SourceAlpha" type="matrix" values="0 0 0 0 0 0 0 0 0 0 0 0 0 0 0 0 0 0 127 0" result="hardAlpha"/>
<feOffset dy="4"/>
<feGaussianBlur stdDeviation="3.55"/>
<feComposite in2="hardAlpha" operator="out"/>
<feColorMatrix type="matrix" values="0 0 0 0 0 0 0 0 0 0 0 0 0 0 0 0 0 0 0.07 0"/>
<feBlend mode="normal" in2="BackgroundImageFix" result="effect1_dropShadow_2_53"/>
<feBlend mode="normal" in="SourceGraphic" in2="effect1_dropShadow_2_53" result="shape"/>
</filter>
<clipPath id="clip0_2_53">
<rect width="26" height="29" fill="white" transform="translate(21 15)"/>
</clipPath>
</defs>
</svg>
