<svg width="67" height="67" viewBox="0 0 67 67" fill="none" xmlns="http://www.w3.org/2000/svg">
<g filter="url(#filter0_d_2_52)">
<path d="M59 29.5C59 43.5833 47.5833 55 33.5 55C19.4167 55 8 43.5833 8 29.5C8 15.4167 19.4167 4 33.5 4C47.5833 4 59 15.4167 59 29.5Z" fill="#1C7F81"/>
</g>
<g clip-path="url(#clip0_2_52)">
<path d="M30.8698 43.9999C30.3274 43.9999 29.9124 43.852 29.6032 43.549C29.2488 43.2018 29.1486 42.7532 29.1009 42.4009C29.0174 41.7849 28.9252 41.1572 28.8359 40.5501C28.7991 40.2999 28.7624 40.0498 28.7261 39.7994C28.721 39.7646 28.7132 39.7225 28.705 39.6781C28.6969 39.6343 28.688 39.5868 28.6799 39.5362C28.1004 39.2737 27.5435 38.9559 27.0185 38.588C26.7487 38.6945 26.4788 38.8009 26.209 38.9073C25.5288 39.1754 24.8255 39.4527 24.1355 39.7274C23.6844 39.9071 23.2856 39.9362 22.9166 39.8165C22.5405 39.6945 22.2382 39.4334 21.9924 39.018L21.5085 38.2007C20.7847 36.9781 20.0362 35.714 19.3031 34.4683C19.2115 34.3126 19.1587 34.1651 19.1161 34.0465C19.1028 34.0093 19.0901 33.9742 19.0791 33.9467L19 33.7512L19.0214 33.542C19.0713 33.0552 19.3109 32.6464 19.7339 32.3266C20.2178 31.9608 20.7086 31.5852 21.1833 31.2219C21.5141 30.9686 21.8542 30.7084 22.1934 30.4503C22.1313 29.8405 22.1313 29.2149 22.1934 28.5532C21.8113 28.2622 21.4281 27.9686 21.0553 27.683C20.6413 27.3657 20.2132 27.0378 19.7916 26.7171C19.5314 26.5192 19.1735 26.1974 19.0694 25.6884C18.9522 25.1148 19.243 24.6236 19.3385 24.4621C19.6701 23.9021 20.0013 23.342 20.3326 22.7817C20.8775 21.8601 21.4411 20.9071 21.997 19.9703C22.4707 19.1719 23.248 18.9151 24.1297 19.2659C24.5667 19.4397 25.012 19.6158 25.4424 19.786C25.958 19.99 26.4888 20.1998 27.0151 20.4098C27.5048 20.064 28.0578 19.75 28.6926 19.4576C28.7863 18.7996 28.8853 18.1379 28.9814 17.495C29.0167 17.2594 29.0519 17.0238 29.0869 16.7881C29.0932 16.7453 29.0993 16.701 29.1056 16.654C29.1208 16.5424 29.1379 16.4159 29.1638 16.2856C29.238 15.9115 29.4198 15.5944 29.6893 15.3685C29.9655 15.1369 30.3206 15.0112 30.716 15.0049C31.0856 14.999 31.4571 15 31.8164 15.0011C31.942 15.0015 32.0675 15.0019 32.1932 15.0019C32.5875 15.0022 32.9878 15.0035 33.3748 15.0048C34.2795 15.0078 35.2151 15.0108 36.1317 15C36.6755 14.9937 37.1135 15.1493 37.433 15.4626C37.7046 15.729 37.8676 16.0874 37.9313 16.5587C38.0116 17.1526 38.1012 17.7581 38.1878 18.3436C38.2273 18.6106 38.2681 18.8865 38.3077 19.1587C38.3144 19.2055 38.3221 19.2534 38.3301 19.3041C38.3379 19.3538 38.3461 19.4057 38.3539 19.4592C38.9532 19.7375 39.5116 20.0566 40.0206 20.4118C40.337 20.2866 40.6536 20.1616 40.9702 20.0367C41.604 19.7864 42.2592 19.5277 42.9023 19.2715C43.8011 18.9135 44.5625 19.166 45.0462 19.9825C45.9995 21.5923 46.876 23.0737 47.7256 24.5116C47.9693 24.9239 48.0492 25.3101 47.97 25.6919C47.8918 26.068 47.6682 26.3921 47.2863 26.6831C46.9668 26.9264 46.6475 27.1702 46.3283 27.4141C45.8402 27.7872 45.3377 28.171 44.8372 28.5504C44.8988 29.1595 44.8986 29.7847 44.8365 30.4461C45.2207 30.7387 45.606 31.0338 45.9808 31.3211C46.3973 31.6404 46.828 31.9704 47.2523 32.293C47.6456 32.5918 47.8761 32.9227 47.9568 33.3041C48.0393 33.6942 47.9572 34.0907 47.7055 34.5161C46.8415 35.9772 45.9401 37.5009 45.0262 39.0448C44.8023 39.4231 44.5043 39.6792 44.1403 39.8065C43.8843 39.8959 43.4695 39.9596 42.9475 39.7541C42.0045 39.383 40.9968 38.9851 39.989 38.5794C39.4382 38.909 38.8781 39.2201 38.3415 39.5138C38.2511 40.1572 38.154 40.8041 38.0598 41.4321C38.021 41.6906 37.9822 41.9492 37.9438 42.2079C37.9378 42.2484 37.9324 42.2932 37.9266 42.3407C37.9145 42.4396 37.9009 42.5516 37.8766 42.6718C37.7073 43.5118 37.1106 43.9948 36.2399 43.9968C35.3644 43.9989 34.475 43.9982 33.6148 43.9975C33.3396 43.9974 33.0645 43.9972 32.7893 43.997C32.591 43.997 32.3911 43.9952 32.1979 43.9936C31.7712 43.9899 31.368 43.9865 30.9622 43.9986C30.9308 43.9995 30.8998 44 30.8693 44L30.8698 43.9999ZM27.1174 36.7701C27.3708 36.7701 27.615 36.8532 27.8258 37.0115C28.3829 37.43 28.9865 37.7779 29.6199 38.0458C29.7625 38.106 29.9721 38.2096 30.1469 38.4128C30.2749 38.5615 30.4277 38.8175 30.4279 39.1934C30.4279 39.2254 30.4426 39.3045 30.4545 39.368C30.465 39.4242 30.4767 39.4878 30.4867 39.5562C30.5228 39.8053 30.5594 40.0546 30.5961 40.3038C30.6859 40.9155 30.7789 41.5479 30.8636 42.1733C30.8685 42.2089 30.8733 42.239 30.8779 42.2643C30.8873 42.2643 30.8974 42.264 30.9082 42.2638C31.349 42.2506 31.7887 42.2543 32.214 42.258C32.4036 42.2596 32.5996 42.2613 32.7907 42.2614C33.066 42.2614 33.3414 42.2617 33.6167 42.2619C34.4456 42.2626 35.3018 42.2631 36.1451 42.2614C36.1508 42.2223 36.1561 42.1795 36.1615 42.1353C36.1683 42.0792 36.1753 42.0212 36.1846 41.9588C36.2231 41.6994 36.2621 41.44 36.301 41.1806C36.4072 40.473 36.517 39.7413 36.616 39.0231C36.6987 38.4225 37.1353 38.1842 37.2788 38.1059C37.9029 37.7653 38.565 37.4007 39.1973 37.0173C39.6209 36.7604 40.0401 36.7217 40.479 36.8988C41.513 37.3162 42.5528 37.7271 43.5266 38.1103C44.4242 36.5938 45.3097 35.0972 46.1589 33.6611C45.7324 33.3368 45.3009 33.0061 44.8836 32.6864C44.4304 32.3391 43.9619 31.98 43.5001 31.6296C43.1503 31.3643 42.9863 30.9827 43.0379 30.5552C43.1285 29.804 43.1282 29.1183 43.037 28.4591C42.9771 28.0259 43.1405 27.639 43.4971 27.3692C44.0766 26.9309 44.6645 26.4818 45.2331 26.0475C45.5427 25.811 45.8523 25.5745 46.1621 25.3385C45.328 23.9268 44.4676 22.4725 43.5335 20.8951C42.9013 21.1469 42.2591 21.4003 41.6378 21.6457C41.2353 21.8046 40.8327 21.9635 40.4304 22.1228C40.3105 22.1703 40.1469 22.2253 39.9449 22.2291C39.6831 22.2341 39.4307 22.1506 39.214 21.9879C38.6645 21.5753 38.0325 21.2133 37.3352 20.912C36.7495 20.6589 36.6351 20.1833 36.6191 19.9223C36.6126 19.8172 36.5935 19.6962 36.5733 19.5682C36.5648 19.5147 36.5562 19.4593 36.5478 19.4022C36.5086 19.1323 36.4679 18.8574 36.4286 18.5915C36.3412 18.0007 36.2509 17.39 36.1691 16.7855C36.1666 16.7667 36.1639 16.75 36.1613 16.7353C36.1589 16.7353 36.1565 16.7353 36.1539 16.7353C35.2236 16.7462 34.281 16.7432 33.3694 16.7401C32.9836 16.7388 32.5846 16.7375 32.1928 16.7374C32.0658 16.7374 31.9389 16.737 31.8118 16.7366C31.5083 16.7357 31.1959 16.7348 30.8892 16.7383C30.8822 16.7843 30.8757 16.8326 30.869 16.8823C30.8623 16.9322 30.8551 16.9841 30.8472 17.0374C30.812 17.2736 30.7767 17.5097 30.7414 17.7459C30.6311 18.4838 30.5169 19.2467 30.4119 19.9962C30.3703 20.2931 30.2133 20.6934 29.7018 20.9157C28.9728 21.2323 28.3757 21.5703 27.8764 21.949C27.4917 22.2406 27.0502 22.2996 26.5991 22.119C25.9923 21.8763 25.3734 21.6315 24.775 21.3948C24.3589 21.2303 23.9291 21.0603 23.5055 20.8919C22.9601 21.8109 22.4077 22.7453 21.873 23.6495C21.5416 24.2099 21.2102 24.7705 20.8786 25.3307C20.8768 25.3337 20.8751 25.3366 20.8734 25.3394C20.8771 25.3422 20.8809 25.3452 20.8848 25.3481C21.309 25.6706 21.7384 25.9997 22.1538 26.3179C22.604 26.6628 23.0694 27.0195 23.528 27.3677C23.88 27.635 24.0454 28.0163 23.9937 28.4413C23.9025 29.1918 23.9026 29.8772 23.9941 30.5364C24.0368 30.8444 23.9895 31.2859 23.5214 31.641C23.1074 31.955 22.6871 32.2767 22.2807 32.5878C21.8216 32.9391 21.3475 33.302 20.8771 33.6579C21.5983 34.8835 22.3354 36.1282 23.0483 37.3323L23.5052 38.104C24.1848 37.8334 24.8754 37.5613 25.5434 37.298C25.8992 37.1579 26.2548 37.0176 26.6105 36.877C26.7364 36.8272 26.8916 36.7756 27.0873 36.7705C27.0974 36.7702 27.1077 36.7701 27.1178 36.7701H27.1174ZM33.5261 35.1357C33.4933 35.1357 33.4606 35.1354 33.4279 35.1349C31.8683 35.1102 30.4243 34.5044 29.3618 33.429C28.8511 32.9121 28.4505 32.311 28.1711 31.6422C27.8861 30.9599 27.7398 30.2364 27.7363 29.4916V29.4828V29.474C27.7488 28.6897 27.9154 27.9343 28.2313 27.2287C28.5383 26.543 28.9726 25.9339 29.5221 25.4183C30.628 24.3805 32.0907 23.8284 33.6408 23.8644C36.8163 23.9376 39.2972 26.4143 39.2891 29.5027C39.285 31.045 38.6755 32.4763 37.5726 33.5326C37.0332 34.0494 36.4033 34.4513 35.7003 34.7273C35.0097 34.9986 34.2787 35.1358 33.5261 35.1358V35.1357ZM29.5145 29.4923C29.5293 31.6492 31.2593 33.3647 33.4567 33.3996C34.5454 33.417 35.5647 33.0242 36.327 32.2938C37.0876 31.5653 37.5079 30.5725 37.5109 29.4981C37.5165 27.3626 35.7981 25.6501 33.5988 25.5995C32.5264 25.5748 31.5162 25.9548 30.7546 26.6694C29.9744 27.4016 29.5341 28.4037 29.5145 29.4923Z" fill="white"/>
</g>
<defs>
<filter id="filter0_d_2_52" x="0.9" y="0.9" width="65.2" height="65.2" filterUnits="userSpaceOnUse" color-interpolation-filters="sRGB">
<feFlood flood-opacity="0" result="BackgroundImageFix"/>
<feColorMatrix in="SourceAlpha" type="matrix" values="0 0 0 0 0 0 0 0 0 0 0 0 0 0 0 0 0 0 127 0" result="hardAlpha"/>
<feOffset dy="4"/>
<feGaussianBlur stdDeviation="3.55"/>
<feComposite in2="hardAlpha" operator="out"/>
<feColorMatrix type="matrix" values="0 0 0 0 0 0 0 0 0 0 0 0 0 0 0 0 0 0 0.07 0"/>
<feBlend mode="normal" in2="BackgroundImageFix" result="effect1_dropShadow_2_52"/>
<feBlend mode="normal" in="SourceGraphic" in2="effect1_dropShadow_2_52" result="shape"/>
</filter>
<clipPath id="clip0_2_52">
<rect width="29" height="29" fill="white" transform="translate(19 15)"/>
</clipPath>
</defs>
</svg>
