<?xml version="1.0" encoding="UTF-8"?>
<svg id="Layer_2" xmlns="http://www.w3.org/2000/svg" viewBox="0 0 489.54 392.71">
  <g id="Layer_1-2" data-name="Layer_1">
    <g>
      <path d="M147.38,149.75c3.89,9.59,3.02,15.29-2.71,19.88-5.58,4.46-11.63,3.9-19.7-1.98-.97.73-1.99,1.54-3.05,2.28-6.45,4.52-14.99,3.02-19.37-3.38-4.38-6.41-2.84-15.19,3.84-19.23,2.61-1.58,3.58-3.07,3.61-6.12.07-5.97,4.06-10.9,9.86-12.28,2.84-.67,4.24-1.83,4.69-4.69.25-1.58.94-3.32,1.97-4.52,2.78-3.22,5.85-6.19,8.81-9.26,3.07,3.13,6.28,6.14,9.15,9.45,1.25,1.44,1.79,3.5,2.33,4.63,5.44.54,10.36.93,15.25,1.56,3.55.46,4.6,2.52,3.61,6.02-2.66,9.46-7.26,16.88-18.29,17.65ZM117.27,134.41c-4.16,1.39-5.32,4.32-3.97,10.08,10.51,2.1,16.01,8.27,14.06,16.73-.96,4.15.82,5.91,3.82,7.45,5.14,2.63,10.2,1.23,13.8-3.74-.03-.08-.05-.16-.08-.24.08.11.15.22.23.33-.94.02-2.04-.27-2.79.12-1.25.65-2.71,2.71-3.33,2.44-2.3-.99-4.47-2.49-6.26-4.25-.48-.47.87-2.5.91-3.83.1-3.83,1.36-4.63,5.48-4.32,3.21.24,4.97-.34,4.92,3.63-.01,1.03,1.44,2.07,2.22,3.11.53-.25,1.06-.5,1.59-.75-.9-3.05-1.09-6.6-2.83-9.05-4.09-5.77-10.19-5.38-16.55-3.14,2.17-2.62,5.6-4.09,6.03-6.17.51-2.45-1.02-5.84-2.66-8.1-2.95-4.06-7.81-4.72-11.5-2.16,2.31.37,5.06.02,6.36,1.24,1.44,1.34,2.11,4.13,2,6.24-.06,1.15-2.79,1.94-3.65,3.31-3.56,5.68-5.12-1.34-7.77-1.09-.1-1.66-.27-3.31-.28-4.97,0-.98.24-1.97.35-2.95l-.19-.23.11.33ZM137.63,144.44c10.47,6.06,24.17,1.92,25.08-15.27-9.25-3.31-17.54-2.32-24.39,5.91,1.62-4.16,5.25-7.88,4.83-11.06-.51-3.88-4.43-7.32-7.81-12.33-3.35,5.24-5.98,8.98-8.14,12.98-.52.97.11,3.73.9,4.07,7.04,3.07,9.68,8.64,9.54,15.7ZM113.69,147.65c-6.21.12-10.95,4.99-10.91,11.19.04,6.28,5.3,11.28,11.62,11.05,6.1-.22,10.78-5.29,10.62-11.49-.16-6.18-5.1-10.87-11.32-10.75ZM121.14,141.81c.81-.02,1.61-.05,2.42-.07.21-1.72.42-3.44.62-5.16-1.34.02-2.68.04-4.02.06.33,1.72.65,3.44.98,5.16ZM142.7,161.33c-1.62-1.34-2.54-2.7-3.55-2.76-.86-.05-2.35,1.26-2.56,2.2-.17.76,1.16,2.62,1.82,2.62,1.17,0,2.35-1.05,4.29-2.06Z"/>
      <path d="M362.31,133.86c.78-4.64,1.57-8.48,2.05-12.37.86-6.9,3.81-10.06,9.48-9.81,5.31.24,8.73,3.7,8.15,10.35-.67,7.63-2.71,15.13-4.29,23.37,6.24,5.4,6.05,20.55-1.58,26.82-1.31,1.08-4.43,1.95-5.18,1.25-1.24-1.14-1.74-3.67-1.62-5.56.19-2.94,1.37-5.81,1.72-8.76.19-1.65-.46-3.39-.89-6.12-2.11,1.51-3.42,2.38-4.66,3.34-7.77,6.03-16.65,8.87-26.38,9.23-4.2.16-8.25.03-11.37-3.71-.81-.97-3.01-.79-4.57-1.12-2.62-.54-5.04-1.41-4.47-4.76.52-3.02,2.61-3.19,5.31-2.85,1.43.18,3.06-.88,4.54-1.51,2.96-1.26,5.77-3.27,8.84-3.79,5.92-1,11.76-1.78,17.58-6.76-2.88-1.07-4.96-2.32-7.12-2.5-2.23-.18-4.54.96-6.83,1.02-2.26.06-4.54-.52-6.81-.82,1.16-2.14,1.8-4.96,3.57-6.3,7.25-5.5,15.67-5.1,24.54,1.35ZM361.38,147.03c4.51-1.33,10.01-1.26,12.03-3.88,5.27-6.81,7.47-15.29,5.57-23.99-.44-2.01-3.78-4.72-5.75-4.69-1.98.03-5.07,2.76-5.65,4.86-2.42,8.85-4.09,17.9-6.21,27.7ZM355.89,146.01c-7.03,1.59-13.78,2.98-20.45,4.7-1.8.46-4.03,1.52-4.87,2.99-1.63,2.86-3.62,2.92-6.28,2.32-.9-.2-1.94.18-2.91.29-.1.45-.2.89-.3,1.34,4.92-.09,8.92,1.68,12.29,4.9.57.54,1.92.33,2.91.37,9.08.35,17.47-1.91,25.11-6.82,1.41-.91,2.63-2.11,3.93-3.18-.28-.61-.56-1.23-.83-1.84-3.12.91-6.39,1.5-9.32,2.82-3.62,1.63-7.03,3.52-11.12,2.16,2.59-1.63,5.38-2.48,8.06-3.58,3.27-1.35,5.19-3.49,3.79-6.46ZM365.85,148.15c-.15.39-.3.79-.45,1.18,14.31,3.68,6.31,13.9,6.34,22.17,1.31-.57,2.43-.72,2.94-1.35,4.47-5.51,5.94-11.92,4.32-18.69-.4-1.66-3.07-3.53-4.97-3.9-2.59-.51-5.44.33-8.18.59ZM358.54,143.45c2.36-5.23,1.48-8.58-2.58-10.77-6.11-3.3-15.18-1.07-19.3,5.43,8.68-2.58,17.06-5.12,21.88,5.34Z"/>
      <path d="M356.44,17.27c2.66.29,5.32.58,8.11.89-.06-7.46,8.08-2.36,9.95-7.29-1.92-3.75-5.62-4.42-9.81-4.43-1.89,0-3.77-.68-5.66-1.05-.29-.47-.58-.94-.87-1.41-1.3,2.33-2.61,4.66-3.97,7.1,5.99-1.08,11.12-2,16.24-2.92.14.74.29,1.49.43,2.23-1.42.22-2.83.53-4.25.66-4.79.42-9.21,1.63-12.25,5.75-3.83,5.18-3.34,7.15,2.85,11.53,6.22-4.07,11.39-3.67,14.18,1.11,2.81,4.8.56,9.51-6.12,12.81.77,7.37-.26,9.21-7.16,12.49,1.11,4.42.8,8.94-3.95,10.87-2.39.97-6.04.76-8.35-.42-3.81-1.96-4.48-5.93-2.99-10.26-5.62-2.3-9.19-5.75-7.06-12.23-7.51-4.75-9.29-8.8-6.06-13.68,2.97-4.49,7.73-4.77,13.44-.78,6.69-3.82,7.24-5.22,3.68-12.24-1.65-3.26-3.97-6.18-5.99-9.25.53-.41,1.05-.82,1.58-1.23,2.77,3.57,5.53,7.14,8.84,11.42.22-1.97.11-3.68.65-5.15,1.04-2.88,2.22-5.77,3.81-8.37.65-1.06,2.83-2.22,3.82-1.88,5.53,1.86,11.15,3.73,16.26,6.49,3.2,1.73,2.66,4.76-.72,6.51-2.76,1.43-5.22,2.74-7.57,5.22-1.8,1.89-7.38.2-11.27.11.08-.86.15-1.72.23-2.58ZM363.08,47.8c-.46-5.09-2.21-7.17-5.78-7.18-3.31,0-5.3,1.85-5.47,5.12-.19,3.55,1.98,6.07,5.26,5.71,2.32-.25,4.41-2.62,5.99-3.65ZM342.13,31.88c-1.46-1.02-3.66-3.74-5.76-3.66-1.89.07-4.72,2.95-5.25,5.06-.82,3.27,1.56,5.62,5.14,5.7,3.52.08,5.47-1.85,5.87-7.1ZM356.16,57c-1.56-1.09-3.76-3.81-5.86-3.73-1.89.07-4.73,2.96-5.23,5.07-.77,3.22,1.55,5.58,5.16,5.69,3.62.11,5.33-2.02,5.93-7.03ZM356.07,31.83c-1.52-1.02-3.59-3.44-5.91-3.7-3.28-.37-5.42,2.23-5.3,5.72.11,3.3,2.21,5.18,5.44,5.18,3.48,0,5.4-2.02,5.76-7.2ZM366.16,39.16c.96-1.54,3.17-3.63,3.5-5.99.44-3.15-2.14-5.23-5.3-5.18-3.34.05-5.61,1.98-5.56,5.61.05,3.61,2.2,5.28,7.36,5.56ZM349.74,47.45c-1.13-4.58-2.68-6.85-6.3-6.84-3.27,0-5.33,1.81-5.54,5.09-.23,3.56,1.97,6.08,5.23,5.77,2.31-.22,4.42-2.6,6.61-4.01Z"/>
      <path d="M15.38,222.27h20.17c.12.27.24.55.35.82-1.33.6-2.67,1.2-4,1.81-1.91.87-3.81,1.74-5.72,2.61,1.92,1.09,3.73,2.52,5.79,3.23,9.67,3.33,15.81,9.89,17.49,19.93,1.64,9.83-1.75,18.15-9.83,24.09-8.24,6.05-17.28,6.75-26.32,1.97-9.45-5-14-13.25-13.23-23.82.74-10.12,6.13-17.37,15.63-21.3,1.68-.69,3.54-.95,5.2-1.68,1.01-.44,1.78-1.41,2.66-2.15-.9-.94-1.64-2.18-2.72-2.73-1.43-.73-3.15-.91-4.72-1.39-.21-.07-.3-.53-.74-1.37ZM16.68,270.4c.2-.53.4-1.07.6-1.6,2.7.74,5.45,2.23,8.07,2.03,2.77-.21,5.41-2.03,8.09-3.14-5.04-7.61-11.27-1.54-16.57-2.43-.07-.47-.14-.94-.21-1.41,2.75-1.05,5.51-2.11,8.28-3.16-1.46-2.88-2.76-5.44-4.06-8,.39-.21.77-.42,1.16-.63,2.36,2.56,4.36,6.59,7.17,7.27,3.07.74,6.89-1.62,10.62-2.69-.84-2.17-1.52-3.95-2.15-5.57-3.04.73-5.5,1.31-7.97,1.9-.12-.49-.25-.97-.37-1.46,2.25-1.16,4.5-2.31,6.77-3.48-.94-2.35-1.76-4.41-2.58-6.46.43-.22.86-.45,1.3-.67,1.47,1.87,2.94,3.73,4.54,5.76,1.6-1.12,3.06-2.13,5.1-3.54-5.85-5.37-9.87-12.97-19.46-8.53-.25.11-.75-.48-1.18-.57-1.6-.33-3.71-1.37-4.75-.72-4.42,2.73-8.79,5.68-12.6,9.18-1.45,1.33-2.46,4.81-1.74,6.47,1.33,3.07,4.26,4.91,8.21,3.8,1.43-.4,3.08-.06,4.62-.06.04.43.07.85.11,1.28-2.57.74-5.14,1.48-7.57,2.17.21,2.44.37,4.42.54,6.39-.4.08-.81.17-1.21.25-1.64-3.56-3.27-7.11-4.91-10.67-3.27,9.99,3.85,21.76,13.03,23.53,1.61.31,3.49-.85,6.46-1.65-3.5-1.71-5.42-2.65-7.34-3.58ZM32.14,261.35c-.02.42-.05.84-.07,1.26,3.38,1.88,6.76,3.77,10.73,5.98,1.41-3.04,2.58-5.56,3.75-8.08-.34-.55-.68-1.09-1.02-1.64l-13.38,2.48ZM40.1,272.21c-.28-.87-.55-1.74-.83-2.61-6.33-1.82-9.38,4.52-14.31,6.21l.75,1.92c4.8-1.84,9.59-3.67,14.39-5.51ZM45.93,245.82c-2.32,1.44-3.92,2.43-5.92,3.68,1.98,2.91.73,8.18,7.37,7.02-.47-3.46-.9-6.65-1.44-10.7Z"/>
      <path d="M17.75,334.08c-.26,1.36-.47,2.47-.68,3.58-.39.09-.78.17-1.17.26-1.14-2.35-2.28-4.7-4.12-8.51,3.86,1.05,6.27,1.71,9.06,2.47,1.11-1.86,2.33-3.93,4.01-6.76,1.59,2.59,2.82,4.61,4.1,6.68,2.55-.64,5.09-1.28,8.61-2.17-1.39,3.58-2.33,5.99-3.37,8.66,1.6.28,2.93.51,4.56.79-.6,1.38-.99,2.46-1.52,3.47-2.2,4.21-3.03,7.56,1.1,11.9,6.27,6.6,6.07,21.58.89,29.22-4,5.9-9.74,7.73-16.51,7.12-6.38-.58-11.18-3.8-13.43-9.71-3.9-10.25-3.77-20.15,3.91-29.03.96-1.11,1.43-3.29,1.1-4.74-.62-2.7-1.99-5.23-3.67-9.37,3.96,1.51,6.83,2.59,10,3.8,1.16-1.84,2.52-3.98,4.28-6.76,1.77,2.76,3.14,4.89,5.18,8.06.99-3.51,1.7-6.01,2.7-9.56-2.04,1.55-3.16,2.4-4.53,3.44-1.11-1.97-2.06-3.65-3.31-5.87-1.17,2.02-2.11,3.65-3.28,5.68-1.25-.84-2.38-1.61-3.89-2.63ZM34.49,372.78c-.42-.39-.84-.79-1.26-1.18,1.21-1.37,2.17-3.23,3.69-4.01,3.36-1.74,3.08-4.02,2-6.92-2.57-6.91-7.56-10.3-14.96-9.98-6.83.29-11.66,4.19-13.34,11.31-.33,1.39.63,3.35,1.52,4.7,1.22,1.85,2.94,3.37,4.44,5.04-.35.34-.7.69-1.05,1.03-1.68-.97-3.35-1.94-5.18-3-1.16,7.3,1.92,14.12,7.37,16.96,5.35,2.79,13.17,1.82,17.29-2.16,4.01-3.87,5.74-10.44,3.79-14.76-1.45,1-2.88,1.99-4.31,2.97ZM33.68,342.87c-2.05,1.49-3.43,2.49-4.97,3.62-1.41-2.14-2.6-3.95-3.93-5.97-1.43,2.33-2.51,4.08-3.71,6.04-1.8-1.35-3.09-2.32-5.15-3.87.74,2.61,1.24,4.39,1.61,5.7h14.77c.36-1.44.78-3.1,1.39-5.52Z"/>
      <path d="M241.04,330.09c3.51,3.64,4.5,8.18,3.6,13.05-.2,1.07-2.29,2.58-3.46,2.52-3.56-.16-7.09-.98-11.53-1.69,1.58,1.99,2.81,3.54,4.34,5.47-1.54,1.33-3.09,2.67-4.64,4.02l.22,1.22c2.81-.38,5.78-.31,8.37-1.26,2.73-1,4.41-.94,6.43,1.38,1.35,1.54,3.69,2.21,6.67,3.87-1.09-3.28-1.69-5.07-2.28-6.86,3.45-1.23,6.53-2.32,10.93-3.89-5.15-1.21-8.63-2.03-12.12-2.85.15-.53.29-1.07.44-1.6,4.99.32,9.99.65,14.32.93.74,2.11.84,4.17,1.93,5.26,12.36,12.41,7.89,31.4-8.94,36.62-8.59,2.67-17.47,2.68-26.15.25-9.96-2.79-15.86-9.74-16.3-18.54-.59-11.68,2.86-17.06,14.47-22.11v-6.79c3.71,1.4,6.82,2.94,10.12,3.73,4.56,1.09,5.55,0,4.61-4.52-.55-2.66-1.55-5.22-2.35-7.83.44-.13.88-.27,1.32-.4ZM255.28,358.46c-.14.64-.29,1.27-.43,1.91-3.23-.5-7.08-.07-9.54-1.72-3.54-2.39-6.48-2.62-10.47-1.76-3.88.84-8.12.45-10.4-4.21,2.03-1.27,3.57-2.23,6.28-3.92-2.14.11-2.81.03-3.4.2-7.57,2.19-11.34,7.1-11.84,15.35-.53,8.73,3.14,15.18,10.88,18.38,9.11,3.78,18.5,3.84,27.87,1.13,10.34-2.99,15.08-10.37,13.87-21.12-1.17-10.44-5.71-13.08-15.54-8.75.92,1.53,1.82,3.02,2.72,4.51Z"/>
      <path d="M130.42,328.01c1.32-.07,1.61-.13,1.63-.08,2.49,5.83,7.65,5.86,12.92,6.51,6.84.84,12.82,3.77,15.84,10.6.7,1.6.92,3.41,1.36,5.13-10.14,2.33-20.6-3.35-21.38-12.92,4.95,6.66,9.74,11.56,17.45,11.21-.28-7.71-9.33-12.65-21.11-11.62-.36,2.51-1.01,5.09-.99,7.66,0,1.32.86,3.08,1.91,3.87,10.28,7.63,14.08,25.52,6.74,35.9-2.13,3.01-6.56,4.55-10.16,6.29-1.5.72-3.61.29-5.44.2-13.74-.69-20.44-9.61-16.19-22.67,1.8-5.55,5.29-10.64,8.51-15.62,1.37-2.11,3.93-3.53,6.12-5.01,1.78-1.2,5.29-1.81,5.47-3.06.54-3.63-.03-7.47-.52-11.18-.22-1.65-1.29-3.19-2.16-5.22ZM140.2,366.7c-1.23-5.15-1.77-9.31-3.24-13.11-1.96-5.06-5.55-6.07-9.82-2.7-7.94,6.27-12.52,14.55-12.58,24.85-.04,5.61,2.99,9.56,7.69,11.02,4.96,1.54,10.2.06,12.8-5.01,2.5-4.87,3.63-10.44,5.15-15.04ZM133.52,388.03c6.17-.87,9.2-3.54,10.68-8.34,2.48-7.99,1.9-20.59-3.18-23.76,1.78,11.38,1.79,22.31-7.51,32.1Z"/>
      <path d="M487.56,346.01c6.76,16.42-4.57,36.11-22.59,40.45-15.6,3.76-32.24-5.25-37.28-20.17-.66-1.94-1.64-3.75,1.51-4.59,19.38-5.16,38.74-10.41,58.36-15.69ZM435.8,362.63c2.45,11.58,15.84,18.93,27.86,15.7,12.51-3.35,20.25-16.03,16.57-27.62-14.81,3.97-29.63,7.95-44.43,11.92ZM431.45,363.62c.02,10.08,10.87,19.31,23.09,20.95,12.89,1.73,26.21-6.76,30.82-19.61,2.48-6.92,2.12-13.27-1.1-15.25-.32,4.03-.14,8.04-1.03,11.8-2.63,11.09-11.75,18.92-22.78,20.12-10.75,1.17-20.97-4.45-26.37-14.42-.7-1.29-1.74-2.4-2.62-3.59Z"/>
      <path d="M453.53,227.16c2.03-.4,4.05-.86,6.09-1.17.9-.14,2.17-.36,2.72.11,4.18,3.57,6.91.76,9.61-2.06,1.14-1.2,1.8-3.25,3.13-3.78,1.86-.73,4.56-1.14,6.09-.27,1.14.65,1.42,3.59,1.26,5.45-.11,1.27-1.6,2.44-2.55,3.6-2.31,2.84-4.69,4.9.61,8,2.45,1.43,2.68,6.71,3.84,10.27.37,1.15.59,2.38.69,3.59.1,1.32.09,2.67-.09,3.98-.11.76-1.02,1.5-.94,2.18.65,5.46-3.06,8.97-4.99,13.35-1.88,4.27-5.74,5.06-8.04,8.09-1.83,2.41-6.78,2.49-10.38,3.5-1.78.5-3.64.75-5.31,1.08-8.41-1.05-15.15-5.42-21.12-12.54-1.13-4.06-2.56-9.18-4.05-14.51,3.05-5.44,2.43-12.17,7.25-18,4.56-5.52,10.51-7.69,16.18-10.88ZM454.77,229.56c-.64.36-1.56.83-2.45,1.36-2.81,1.66-5.82,3.08-8.35,5.08-2.58,2.04-6.34,4.5-6.59,7.07-.34,3.46-3.07,5.77-2.92,9.71.1,2.6.14,5.75.48,8.46.4,3.16,1.55,6.62,3.47,9.1,2.06,2.67,5.28,4.54,8.21,6.42,3.29,2.12,6.92,2.43,10.95,2.45,3.56.02,6.3-1.21,9.14-2.5,2.85-1.29,5.95-2.78,7.93-5.06,2.09-2.4,2.26-6.74,4.58-8.59,3.25-2.59,1.69-5.6,2.16-8.29.54-3.16.69-6.8-.37-9.72-1.14-3.13-3.94-5.64-5.95-8.47-2.46-3.47-5.49-5.74-10-5.87-3.24-.09-6.47-.71-10.28-1.16ZM469.81,229.59c5.67,1.42,8.68-1.11,10.7-7.63-6.09-.84-6.08,5.41-10.7,7.63Z"/>
      <path d="M242.98,127.99l-5.47-17.04c.18-.22.36-.45.54-.67,2.07,2.67,4.14,5.34,6.4,8.26,4.72-5.98,11-8.73,18.9-6.75.76,8.18-5.87,13.45-15.06,10.97,4.71-2.72,11.76-1.25,12.38-8.27-8.76-1.87-16.36,4.72-15.69,12.13,5.35.87,10.86.68,15.18,2.84,3.22,1.61,5.97,5.96,7.08,9.64,2.46,8.16.78,16.13-5.75,21.98-4.92,4.42-10.64,7.96-16.13,11.7-.89.6-2.74.67-3.69.15-5.39-2.96-10.93-5.77-15.86-9.4-7.72-5.68-10.21-13.83-8.37-23.05,2.25-11.28,11.41-16.07,22.19-12.04.6.23,1.23.37,1.85.55.5-.34,1-.68,1.5-1.01ZM246.51,143.96c-.32-1.33-.62-2.67-.98-4-1.69-6.36-6.34-10.25-12.41-10.4-6.02-.15-10.81,3.55-12.78,9.89-2.35,7.53-.04,16.64,6.19,21.26,4.91,3.64,10.42,6.49,15.75,9.55.63.36,1.98.14,2.65-.32,4.8-3.29,9.81-6.36,14.18-10.16,6.37-5.52,8.16-14.47,5.12-21.9-3.38-8.24-12.03-10.79-19.14-5.63,1.37,3.73,4.55,7.15,1.43,11.71Z"/>
      <path d="M322.13,368.85c1.2-.8,3.54-2.38,5.28-3.55,1.61-6.16,3.34-11.99,4.59-17.91.55-2.61.09-5.43.09-9.15,2.82.73,6.16,1.59,10.35,2.67v-14.9c3.79,3.31,6.59,5.76,9.55,8.34,2.07-2.85,4.23-5.81,6.95-9.56,1.07,6.04,1.9,10.8,2.77,15.69,3.84-.92,6.91-1.66,8.96-2.15,1.68,9.24,3.24,17.77,4.84,26.57,2.08,1.38,4.55,3.03,8.28,5.51-7.77,1.77-10.19,6.91-13.11,11.78-8.42,14.07-29.32,13.92-37.94.08-2.85-4.58-6.69-8.53-10.6-13.43ZM335.88,341.19c-.99,4.02-1.84,7.18-2.53,10.39-.83,3.86-2.01,7.75-2.11,11.65-.1,3.61-.53,6.12-4.37,5.76,2.86,4.18,5.77,8.13,8.36,12.29,7.11,11.43,25.64,11.57,32.89.24,2.73-4.27,5.7-8.39,8.59-12.63-4.64.6-4.53-2.57-4.49-6.26.03-3.1-.61-6.27-1.36-9.31-.92-3.78-2.25-7.47-3.57-11.71-1.36.95-2.99,2.09-5.31,3.7-1.87-4.22-3.62-8.19-5.57-12.58-1.54,2.89-2.9,5.44-4.5,8.43-1.89-2.97-3.45-5.44-5.02-7.9-.91,4.99-1.09,9.52-6.1,11.65-1.69-1.28-3.21-2.43-4.92-3.72Z"/>
      <path d="M125.73,275.64c-9.92-3.34-14.94-10.32-14.49-20.45.57-12.6,8.77-19.09,21.08-22.91-2.38-4.54-4.57-8.72-6.98-13.3.98.13,1.91,0,2.09.32,2.79,4.79,6.77,3.56,11.15,2.87,7.45-1.18,14.73-.52,20.03,5.94,1.1,1.35,1.8,3.02,2.68,4.55-8.8,5.01-19.27,2.67-24.56-6.39,7.2,3.72,12.94,9.21,20.57,5.28-4.37-7.35-13.51-9.27-24.02-5.19-.2,4.39,1.91,6.52,6.12,8.05,12.7,4.62,18.19,14.63,15.5,27.01-1.44,6.61-4.3,9.65-13.71,14.41.06,1.38.13,2.91.2,4.41-2.82.45-5.4.86-8.08,1.29-2.32-.42-4.91-.89-7.85-1.42.07-1.08.16-2.48.29-4.46ZM135.3,235.88c-.52,1.75-.95,3.21-1.39,4.67-.33,0-.66.02-.99.02-.52-1.57-1.04-3.14-1.62-4.89-1.22.34-2.37.54-3.42.98-8.17,3.4-13.51,9.13-13.97,18.28-.46,9.07,3.69,15.24,12.49,18.09.86.28,2.01.93,2.25,1.66,1.62,4.94,6.46,4.62,7.91,2.21,2.59-4.32,7.5-4.09,10.19-7.26,2.08-2.46,4.35-5.18,5.24-8.16,3.59-11.97-2.73-21.5-16.7-25.6Z"/>
      <path d="M349.49,230.68c-2.62-4.67-4.83-8.6-7.1-12.63.53-.15,1.3-.48,1.38-.36,3.79,5.65,9.09,3.37,14.14,2.87,10.28-1.01,17.2,2.83,20,10.87-8.28,5.07-21.06,1.99-23.3-6.77,6.2,4.87,12.05,8.65,19.48,5.8-2.87-7.35-13.26-9.77-23.82-5.46-.02,3.79,1.13,6.16,5.48,7.18,4.99,1.17,7.13,5.52,6.94,10.34-.22,5.48,1.47,9.85,4.68,14.24,8.09,11.07,3.36,23.62-10.06,26.25-4.9.96-10.36.73-15.26-.36-11.44-2.55-16.25-14.33-9.75-24.12,3.63-5.46,5.98-10.7,5.93-17.42-.05-5.94,4.48-8.89,11.26-10.44ZM348.4,234.03c-5.14,1.33-7.59,2.83-7.37,6.46.48,8.07-3.18,14.18-7.16,20.68-4.56,7.45-.72,16.41,7.73,18.61,4.55,1.19,9.61,1.44,14.29.87,11.64-1.42,16.43-12.15,9.71-21.78-3.57-5.11-5.93-10.08-5.67-16.52.22-5.36-2.37-7.45-7.81-7.94l-1.19,4.59c-.4-.04-.81-.08-1.21-.13-.41-1.51-.82-3.03-1.32-4.84Z"/>
      <path d="M468.52,31.27c-4.89,3.99-8.83,7.21-13.08,10.67.1.77.34,2.05.42,3.35.26,4.74-2.25,8.64-6.66,9.96-4.28,1.29-7.96.05-10.58-3.54-2.65-3.63-2.57-7.57-.05-11.18,2.71-3.89,7.03-5.43,11-3.35,6.45,3.36,9.58-1.2,13.12-4.51,4.02-3.76,5.1-9.29,2.43-13.68-2.01-3.31-5.13-5.97-7.89-8.79-1.07-1.09-2.51-1.81-3.34-3.42,4.83.08,7.8,3.51,11.3,6.76,4.57-8.89,11.52-12.26,21.16-10.17.28,5.3-2.17,8.91-6.61,10.82-2.28.98-5.09.74-7.86.08,4.66-1.78,10.13-1.71,11.4-8.32-4.99-1.21-8.99.25-12.26,3.68-3.23,3.39-4.03,6.99-2.02,11.75,3.14,7.45,1.98,15.34.76,23.15-.23,1.49.6,3.7,1.71,4.76,3.83,3.63,5.15,7.79,3,12.07-2.11,4.21-5.72,5.95-10.31,5.34-4.21-.56-7.99-4.78-7.96-9.03.02-4.82,2.42-8.02,7.05-9.82,1.49-.58,3.23-2.26,3.57-3.73.92-3.98,1.15-8.11,1.72-12.81ZM465.81,50.15c-3.63-.05-6.97,3.32-6.98,7.03,0,3.92,2.97,6.85,6.97,6.87,3.91.02,7.01-3.01,7.01-6.86,0-3.71-3.26-6.98-7.01-7.04ZM453.28,45.97c-.07-3.85-3.24-6.98-7.03-6.94-3.79.04-6.86,3.25-6.82,7.12.05,3.99,2.98,6.84,7,6.81,3.91-.03,6.91-3.09,6.85-6.99Z"/>
      <path d="M223.06,25.87c1.89-.64,4.02-1.37,5.77-1.97-.87-3.58-1.68-6.95-2.67-11.01,5.74,1.92,10.43,3.49,15.11,5.06.43-.41.86-.82,1.29-1.23-.52-2.28-.82-4.64-1.61-6.82-.77-2.14-2.03-4.09-3.7-7.37,5.77,3.55,9.03,10.64,7.4,14.75-.46,1.16-2.28,2.22-3.64,2.47-1.73.32-3.65-.06-5.42-.47-1.76-.4-3.43-1.21-6.56-2.36,1.83,2.85,3.03,4.71,4.56,7.07-1.77,1.18-3.59,2.4-5.72,3.83,4.64,3.38,8.55.57,11.51-.74,3.87,2.49,7.1,4.56,10.32,6.63.37-.44.74-.88,1.1-1.32-.65-1.94-1.31-3.88-2.02-5.99,3.58-1.27,6.86-2.44,10.14-3.6-.06-.37-.12-.74-.17-1.11-3.69-.81-7.39-1.61-11.08-2.42.11-.57.22-1.13.33-1.7,5.18.42,10.36.85,16.67,1.37-2.35,2.99-4.12,5.25-5.91,7.53,8.88,14.11,4.6,30.4-10.06,38.58-3.72,2.07-7.2,2.2-10.86.09-9.18-5.31-19.56-20.22-13.69-33.21.65-1.45-.66-3.78-1.13-6.07ZM255.5,33.43c-.07.56-.14,1.13-.21,1.69-3.31-.17-7.45.85-9.75-.76-4.6-3.23-9.01-3.62-14.04-2.46-.31.07-.67,0-.99-.08-2.85-.79-3.8.98-4.57,3.23-3.28,9.67,5.58,26.34,15.52,28.67,1.75.41,4.14.03,5.68-.91,8.12-4.93,13.61-12.04,14.02-21.68.16-3.79-2.11-7.79-3.78-11.47-.51-1.13-2.68-1.51-4.09-2.24-.29.37-.59.75-.88,1.12,1.03,1.63,2.06,3.25,3.1,4.88Z"/>
      <path d="M459.75,119.51c-2.37-2.87-3.99-4.83-5.55-6.72,2.95-1.2,5.63-.04,6.48,3.98.78,3.68,2.86,4.3,5.98,4.46,5.11.27,9.58,1.48,10.31,7.83.15,1.3,1.53,2.49,2.42,3.67,7.8,10.35,6.61,24.18-2.86,32.96-9.81,9.09-24.83,9.2-35.01.26-9.44-8.29-10.96-22.08-3.74-32.54,1.45-2.1,1.85-5.08,3.6-6.76,2.32-2.25,5.31-4.04,8.33-5.27,2.66-1.08,5.74-1.12,10.06-1.87ZM458.33,169.97c9.14-.18,16.24-3.87,20.73-11.77,4.12-7.24,3.84-14.66-.34-21.84-2.98-5.11-5.79-5.85-11.1-3.36-5.89,2.76-11.76,2.89-17.66-.11-4.96-2.52-7.89-1.66-10.77,3.17-4.36,7.31-4.68,14.83-.44,22.27,4.31,7.56,11.11,11.14,19.58,11.64ZM443.78,127.59l.59,1.92c2.67-.59,5.34-1.19,8.17-1.82-.09,1.17-.18,2.4-.27,3.68h13.31c.08-.48.17-.96.25-1.44-3.15-2.11-6.31-4.21-10.03-6.7-2.97,2.2-9.37-1.51-12.01,4.36ZM461.58,123.6c1.94,1.42,4.19,2.58,5.76,4.34,2.5,2.79,4.41,1.39,6.85,0-2.99-5.96-8.79-2.82-12.61-4.34Z"/>
      <path d="M23.17,132.15c1.32-7.52-2.71-13-6.72-18.48l1.84-1.06c2.39,3.07,4.77,6.14,7.3,9.4,4.87-6.55,11.38-9.56,19.88-7.3-.97,9.22-8.37,14.39-15.03,10.29,4.7-1.78,10.98-.97,11.93-7.78-9.6-1.56-17.2,5.52-15.74,14.48.32.06.7.25.94.14,11.23-4.88,18.8-.63,20.51,11.63,1.23,8.82-.76,16.9-6.39,23.86-4.27,5.28-8.88,6.14-14.93,3.51-1.1-.48-2.8-.32-3.95.18-5.22,2.3-9.04,1.8-13.21-2.06-7.67-7.1-10.76-23.11-6.27-32.5,2.86-5.98,8.94-8.38,15.59-6.09,1.38.47,2.7,1.13,4.24,1.78ZM45.94,145.75c-.42-1.6-.82-4.61-1.97-7.3-2.65-6.2-8.72-8.18-14.35-4.45-3.46,2.29-6.08,2.15-9.5-.05-5.51-3.54-11.85-1.71-14.37,3.63-3.89,8.24-1.38,22.66,5.16,28.94,3.23,3.11,6.68,4.69,11.17,1.87,1.34-.84,3.87-.82,5.4-.15,5.43,2.36,8.8,1.82,12.54-2.94,4.17-5.31,5.75-11.51,5.92-19.54Z"/>
      <path d="M132.22,14.83c-2.39-4.92-4.56-9.4-7.19-14.83,5.34,2.02,6.16,6.55,8.55,10.3,4.81-7.41,11.44-10.34,20.02-8.38.25,8.61-6.58,13.8-15.33,10.59,5.28-1.9,11.75-1.16,12.52-8.1-8-1.14-13.07,2.3-15.74,10.84,1.07.24,2.12.47,3.17.71,7.75,1.81,12.49,6.58,14.13,14.41,3.69,17.68-9.54,34.21-26.89,33.57-7.27-.27-10.11-4.27-8.41-11.25.55-2.25.75-5.06-.11-7.1-6.72-15.96-2.43-25.53,15.27-30.76ZM131.44,18.27c-2.22.55-4.38.77-6.26,1.61-8.2,3.66-10.74,13.07-6.72,22.72,1.2,2.89,2.19,6.47,1.6,9.4-1.53,7.61.33,10.11,8.22,9.32,15.33-1.53,25.53-17.24,21-32.34-1.98-6.59-6.57-9.97-14.16-10.34-.35,2.06-.71,4.13-1.06,6.21-.46-.01-.93-.02-1.39-.03-.37-1.98-.74-3.97-1.22-6.54Z"/>
      <path d="M239.71,275.7c-1.27-5.29-2.22-9.25-3.17-13.22.64-.33,1.28-.67,1.91-1,1.95,10.13,6.28,18.23,17.49,18.23,11.28,0,16.1-7.56,17.6-18.09.43.11.86.21,1.28.32.2,1.07.68,2.17.57,3.22-1.43,14.08-17.09,21.82-29.29,14.3-2.81-1.73-5.13-2.2-8.25-1.33-2.34.65-5.01.82-7.41.41-3.62-.61-6.83-1.35-10.46.81-1.4.83-5.29-.4-6.47-1.92-1.33-1.72-1.12-4.81-1.17-7.31-.04-2.48,1-5.06.6-7.43-3.06-18.15,13.62-34.21,31.63-30.48,1.92.4,4.39-.35,6.22-1.29,3.39-1.75,6.45-1.9,9.11.9,2.51,2.64,2.09,5.52.53,8.74-1.01,2.1-1.46,4.85-1.12,7.15.78,5.18.48,8.81-2.38,12.51-.21-1.25-.44-2.05-.46-2.87-.09-3.46-.3-6.93-.11-10.38.14-2.44.98-4.84,1.26-7.29.23-2.08.11-4.21.14-6.32-2.1.17-4.21.25-6.29.52-2.28.3-4.7,1.51-6.77,1.04-17.18-3.87-32.75,11.59-28.88,28.69.48,2.13-.61,4.59-.73,6.91-.09,1.82-.42,4.13.5,5.34.71.93,3.22.7,4.92.63,2.8-.11,5.57-.65,8.37-.76,3.55-.14,7.12-.03,10.8-.03Z"/>
      <path d="M22.56,18.96c-2.43-4.84-4.65-9.28-6.88-13.72.42-.31.84-.63,1.26-.94,2.29,3.02,4.57,6.04,7.14,9.43,4.59-6.89,11.26-9.41,19.71-7.6.73,4.6-1.36,7.86-4.92,10.08-2.85,1.78-6.08,3.01-10.22.39,5.27-1.53,10.91-1.3,12.31-7.47-6.77-2.49-13.16,1.63-15.77,10.36,7.62,1.42,14.56,4.59,17.65,12.02,1.83,4.38,2.88,9.75,2.22,14.37-1.63,11.4-11.19,18.46-22.71,18.06-10.66-.37-19.31-8.44-20.77-19.36C-.02,32.59,6.79,23.87,22.56,18.96ZM21.42,22.74c-10.8,1.2-18.49,10.56-17.45,20.84,1.08,10.64,10.74,18.86,20.95,17.82,11.16-1.13,18.87-10.18,18.04-21.18-.72-9.69-9.02-17.66-17.75-17.05-.37,1.48-.73,2.95-1.1,4.43l-1.08.08c-.51-1.56-1.02-3.13-1.61-4.94Z"/>
      <path d="M242.48,262.04h27.11c.74,5.51-1.53,9.53-5.68,12.41-4.61,3.21-9.67,3.32-14.55.55-4.85-2.76-7.15-7.03-6.88-12.96ZM261.9,273.55c-2.37-3.3-3.91-5.45-5.84-8.15-1.93,2.82-3.43,5-5.59,8.15h11.43ZM258.84,264.76c2.11,2.72,3.44,4.42,5.28,6.78,1.3-2.63,2.18-4.42,3.34-6.78h-8.62ZM248.31,271.74c1.94-2.83,3.18-4.64,4.77-6.96h-8.29c1.21,2.4,2.13,4.21,3.52,6.96Z"/>
      <path d="M221.41,259.35c.47.94,1.02,1.55.89,1.92-.16.47-.88.75-1.35,1.11-.33-.46-.94-.94-.93-1.39.01-.43.67-.84,1.39-1.64Z"/>
      <path d="M226.45,255.24c.68.76,1.33,1.16,1.32,1.56,0,.44-.6.87-.94,1.3-.44-.35-1.11-.63-1.26-1.07-.11-.35.42-.91.87-1.79Z"/>
      <path d="M220.79,252.37c.76.83,1.46,1.25,1.47,1.7.02.44-.65.91-1.01,1.37-.45-.37-1.14-.67-1.28-1.14-.12-.4.39-.99.81-1.93Z"/>
      <path d="M117.92,162.15c-2.22,1.44-4.76,4.39-7.09,4.23-2.22-.15-4.22-3.54-6.32-5.5,2.98-1.25-.88-8.11,5.51-6.66,1.78.4,4.56-.43,5.33.54,1.4,1.75,1.63,4.44,2.56,7.39ZM110.74,155.87c-1.24,2.23-2.4,3.36-2.22,4.22.22,1.02,1.77,2.63,2.39,2.49,1.09-.26,2.46-1.54,2.68-2.61.17-.81-1.28-1.95-2.86-4.09Z"/>
      <path d="M24.87,365.39c2.15,2.46,3.83,4.37,5.5,6.28-.36.37-.71.75-1.07,1.12-1.36-.94-2.73-1.89-4.29-2.97-1.47.94-3.01,1.93-4.55,2.92-.35-.36-.69-.72-1.04-1.07,1.65-1.91,3.31-3.82,5.44-6.29Z"/>
      <path d="M36.19,364.45c-1.36-.93-2.72-1.87-4.23-2.91-1.46.92-2.98,1.87-4.51,2.83l-1.03-1.12c1.66-1.87,3.32-3.73,5.47-6.16,2.11,2.42,3.75,4.31,5.4,6.19-.37.39-.73.78-1.1,1.17Z"/>
      <path d="M22.31,364.49c-1.42-.97-2.84-1.95-4.33-2.97-1.49.99-2.92,1.95-4.35,2.9-.37-.35-.75-.7-1.12-1.05,1.6-1.89,3.21-3.77,5.33-6.27,2.16,2.36,3.9,4.26,5.64,6.16-.39.41-.78.82-1.16,1.23Z"/>
      <path d="M22.13,381.11c-1.27-.94-2.53-1.87-4.05-2.99-1.43.92-2.98,1.91-4.53,2.91-.38-.4-.76-.81-1.15-1.21,1.79-1.68,3.63-4.75,5.36-4.69,1.98.07,3.86,2.91,5.78,4.55-.47.48-.94.95-1.41,1.43Z"/>
      <path d="M35.73,381c-1.24-.97-2.49-1.93-3.8-2.94-1.5,1.04-2.91,2.02-4.32,2.99-.39-.39-.79-.78-1.18-1.17,1.72-1.69,3.55-4.84,5.13-4.72,2.04.15,3.87,2.92,5.8,4.57-.54.42-1.09.85-1.63,1.27Z"/>
      <path d="M133.16,370.19c-.19.86-.34,3.08-1.16,5.01-1.55,3.68-3.8,6.79-8.57,5.81-4.22-.87-7.38-5.16-6.93-9.65.53-5.23,3.51-8.98,8.23-11.02,5.13-2.21,8.33,1.17,8.42,9.85ZM130.83,369.28c-1.15-2.5.96-7.17-4.4-6.63-3.85.38-8.4,6.45-7.18,10,.8,2.31,3.05,4.69,5.26,5.68.93.42,3.73-2.44,5.12-4.24.91-1.18.83-3.14,1.2-4.81Z"/>
      <path d="M448.62,364.95c-.66,1.09-1.32,2.19-1.98,3.28-.48-.28-.96-.57-1.44-.85.66-1.09,1.32-2.19,1.98-3.28.48.28.96.57,1.44.85Z"/>
      <path d="M471.41,357.62l3.18,1.87c-.22.44-.43.87-.65,1.31-1.16-.52-2.33-1.03-3.49-1.55.32-.54.64-1.09.96-1.63Z"/>
      <path d="M456.21,362.09c.21,1.08.42,2.17.64,3.31-.74.06-1.28.18-1.32.1-.4-1.02-.74-2.07-1.08-3.11.59-.1,1.17-.2,1.76-.3Z"/>
      <path d="M463.35,363.51c-.3-1.07-.6-2.14-.9-3.22.52-.15,1.03-.3,1.55-.45.3,1.07.59,2.15.89,3.22l-1.54.44Z"/>
      <path d="M445.54,268.92c-1.56-2.46-3.13-4.93-5.29-8.34.64-4.11,1.48-9.47,2.35-14.98,4.16-3.39,8.37-6.82,11.38-9.28h10.6c.13.3.26.6.38.9-1.59.91-3.43,2.86-4.71,2.54-6.91-1.72-10.26,3.48-13.84,7.24-1.86,1.95-2.15,5.81-2.31,8.85-.14,2.77-.49,5.86,2.36,8.19.83.68.13,3.23.13,4.92-.35-.02-.7-.03-1.04-.05Z"/>
      <path d="M469.48,238.73c4.72,5.63,7.13,11.3,6.3,16.5-.8,5.04-4.84,9.56-6.82,13.16-3.5,1.88-5.95,3.19-8.47,4.54-2.68-.13-5.73-.27-10.15-.48,2.39-1.47,4.69-3.68,5.46-3.24,3.96,2.3,6.59-1.2,9.19-2.31,2.45-1.05,3.87-4.94,5.29-7.8.95-1.9,1.16-4.19,1.59-6.32.6-2.95,0-5.37-2.24-7.73-.89-.94-.15-3.44-.15-6.32Z"/>
      <path d="M333.47,365.57c.79-14.26,10.68-23.24,22.82-19.52,3.88,1.19,7.99,4.46,10.12,7.93,4.62,7.52,4.4,15.91.37,23.81-3.23,6.35-8.77,9.3-15.94,8.95-7.22-.35-12.24-4.06-14.85-10.63-1.32-3.32-1.71-7.02-2.53-10.54ZM366.92,365.77c-.05-8.33-3.81-14.92-9.87-16.99-5.64-1.93-11.1-1.36-15.28,3.02-6.03,6.32-6.18,14.11-3.84,21.98,1.62,5.46,5.22,9.2,11.17,10.11.16.03.33.03.5.04,10.49,1.09,17.4-6.16,17.32-18.16Z"/>
      <path d="M244.88,57.87c-.91.26-1.76.69-1.91.52-.43-.49-.58-1.23-.83-1.88.56-.14,1.21-.52,1.65-.35.41.16.6.9,1.09,1.72Z"/>
      <path d="M243.22,37.41c.59.71,1.34,1.32,1.24,1.53-.28.58-.91.99-1.4,1.47-.36-.45-.97-.9-.99-1.37-.02-.44.6-.9,1.15-1.63Z"/>
      <path d="M257.46,39.11c-.77.6-1.28,1.28-1.68,1.22-.46-.07-1.12-.77-1.14-1.23-.02-.39.7-1.1,1.15-1.15.41-.05.9.59,1.67,1.16Z"/>
      <path d="M229.06,39.28c.63-.58,1.01-1.2,1.48-1.28.4-.07.9.49,1.35.78-.38.57-.77,1.14-1.15,1.71-.48-.34-.96-.69-1.69-1.21Z"/>
      <path d="M250.17,50.55c-.54-.87-.98-1.33-1.07-1.84-.04-.26.64-.93.88-.88.53.12.99.57,1.48.89-.34.48-.67.95-1.29,1.83Z"/>
      <path d="M238.17,48.89c-.98.53-1.51,1.07-1.93.99-.43-.08-.75-.75-1.12-1.17.44-.33.86-.9,1.32-.93.42-.03.88.53,1.74,1.11Z"/>
      <path d="M32.22,54.53c-.79.51-1.28,1.08-1.74,1.05-.45-.02-.86-.64-1.3-1,.49-.47.92-1.09,1.51-1.33.23-.1.81.65,1.53,1.27Z"/>
      <path d="M30.36,49.17c-.53-.76-1.22-1.44-1.1-1.64.32-.54.98-.88,1.51-1.3.3.47.86.96.84,1.41-.02.44-.65.84-1.24,1.54Z"/>
      <path d="M35.64,48.46c.76.72,1.56,1.2,1.49,1.47-.14.62-.72,1.14-1.12,1.7-.4-.42-1.01-.79-1.12-1.28-.1-.43.36-.99.75-1.89Z"/>
      <path d="M356.96,359.13c-.45-1.4-.81-2.01-.79-2.61.02-.51.47-1,.73-1.5.58.38,1.28.67,1.66,1.2.14.2-.49.94-1.6,2.9Z"/>
      <path d="M346.13,354.44c.65.77,1.41,1.39,1.31,1.62-.26.6-.91,1.03-1.4,1.52-.34-.47-.93-.93-.96-1.42-.03-.44.54-.93,1.06-1.73Z"/>
      <path d="M363.17,366.62c-.94.25-1.73.67-1.95.47-.46-.41-.61-1.16-.88-1.77.58-.14,1.22-.51,1.72-.36.4.12.61.86,1.12,1.66Z"/>
      <path d="M343.78,365.75c-.77.71-1.17,1.37-1.63,1.41-.4.03-1.15-.58-1.21-.99-.05-.4.51-1.17.92-1.26.43-.1,1,.41,1.91.84Z"/>
      <path d="M353.54,365.96c-.92.58-1.45,1.17-1.86,1.1-.38-.06-.77-.8-.9-1.31-.05-.2.61-.85.88-.81.51.07.96.49,1.88,1.02Z"/>
      <path d="M348.16,375.53c-.97.69-1.41,1.18-1.92,1.29-.33.07-.78-.44-1.17-.69.31-.49.53-1.23.95-1.38.4-.14,1.02.34,2.14.78Z"/>
      <path d="M359.3,375.88c-1.15.5-1.77,1-2.18.87-.43-.14-.66-.89-.98-1.37.4-.26.84-.78,1.19-.73.51.07.95.56,1.97,1.23Z"/>
    </g>
  </g>
</svg>